<svg xmlns="http://www.w3.org/2000/svg" viewBox="0 0 130 130" role="img" aria-labelledby="title desc">
  <title id="title">Ploff</title>
  <desc id="desc">Ploff application logo</desc>
  <rect width="130" height="130" fill="#05060b"/>
  <path d="M50 18 67 34 85 18" fill="none" stroke="#16b8b5" stroke-linecap="round" stroke-linejoin="round" stroke-width="4"/>
  <path d="M38 111a7 7 0 0 1-7-7V58c0-17 10-26 28-26h18c18 0 28 10 28 27v7c0 17-10 26-28 26H45v12a7 7 0 0 1-7 7Zm7-34h31c10 0 15-4 15-13v-4c0-9-5-13-15-13H60c-10 0-15 4-15 13Z" fill="#fff"/>
  <circle cx="79" cy="84" r="2.6" fill="#16b8b5"/>
  <circle cx="88" cy="83" r="3.2" fill="#16b8b5"/>
  <g fill="none" stroke="#fff" stroke-linecap="round" stroke-linejoin="round" stroke-width="3.4">
    <path d="M50 96v13"/>
    <circle cx="61" cy="103" r="6.5"/>
    <path d="M74 109V99c0-3 1.8-4.5 5.2-4.5h1.6M71.5 100h7.8"/>
    <path d="M86.5 109V99c0-3 1.8-4.5 5.2-4.5h1.6M84 100h7.8"/>
  </g>
</svg>
